<?xml version="1.0" encoding="UTF-8"?>
<svg id="Layer_1" xmlns="http://www.w3.org/2000/svg" version="1.1" viewBox="0 0 612 792">
  <!-- Generator: Adobe Illustrator 30.2.1, SVG Export Plug-In . SVG Version: 2.1.1 Build 1)  -->
  <defs>
    <style>
      .st0 {
        stroke-width: .5px;
      }

      .st0, .st1, .st2 {
        fill: #fff;
      }

      .st0, .st3, .st2, .st4 {
        stroke: #231f20;
        stroke-miterlimit: 10;
      }

      .st5 {
        font-size: 200.81px;
      }

      .st5, .st6 {
        fill: #231f20;
        font-family: MyriadPro-Regular, 'Myriad Pro';
      }

      .st6 {
        font-size: 199.91px;
      }

      .st4 {
        fill: none;
      }
    </style>
  </defs>
  <g>
    <path class="st1" d="M238.08,396c-5.5,0-7.99-2.41-5.54-5.35s8.96-5.35,14.46-5.35h75.23c5.5,0,12.41,2.41,15.36,5.35s.86,5.35-4.64,5.35h-94.88Z"/>
    <path class="st4" d="M238.08,396c-5.5,0-7.99-2.41-5.54-5.35s8.96-5.35,14.46-5.35h75.23c5.5,0,12.41,2.41,15.36,5.35s.86,5.35-4.64,5.35h-94.88Z"/>
  </g>
  <line class="st2" x1="271.75" y1="354.75" x2="272.38" y2="385.3"/>
  <line class="st2" x1="296.14" y1="354.75" x2="296.78" y2="385.3"/>
  <path class="st2" d="M338.32,283.29c-.01,1.43-.03,3.57-.02,6.17,0,2.1.03,3.41.05,4.76,0,0,.06,5.12,0,9.51-.06,4.73-2.33,16.94-9.83,28.52-7.55,11.65-16.83,17.19-20.19,19.02-3.11,1.69-12.39,6.34-25.1,6.18-5.4-.07-15.56-1.05-26.36-7.61-10.29-6.25-16.07-14.46-18.24-17.83,0,0-7.86-12.2-9.72-28.05-.67-5.73-.66-9.99-.66-9.99,0-1.13.03-2.7,0-5.23-.03-2.31-.11-4.2-.17-5.47h9.97c.05,1.07.11,2.69.14,4.65.03,2.15,0,3.49,0,4.45,0,0,0,3.62.54,8.5,1.51,13.48,7.87,23.86,7.87,23.86,1.76,2.87,6.44,9.85,14.78,15.17,8.75,5.58,16.98,6.41,21.36,6.47,10.3.13,17.82-3.82,20.34-5.26,2.72-1.56,10.25-6.27,16.36-16.18,6.08-9.86,7.92-20.24,7.97-24.27.05-3.74,0-8.09,0-8.09-.01-1.15-.03-2.27-.04-4.05,0-2.22,0-4.03.02-5.25h10.93Z"/>
  <path class="st2" d="M319.34,283.29c0,1.07-.02,2.67-.01,4.62,0,1.67.02,2.65.03,3.95,0,0,.03,3.68,0,6.72-.02,2.71-1.05,11.82-6.52,21.34-5.01,8.72-11.17,12.86-13.4,14.23-2.06,1.27-8.23,4.74-16.66,4.62-3.58-.05-10.33-.79-17.5-5.69-6.83-4.67-10.67-10.82-12.11-13.34,0,0-5.22-9.13-6.45-20.99-.37-3.54-.38-6.7-.38-6.7-.03-1.37-.02-2.39-.06-4.69-.03-1.72-.08-3.14-.11-4.09h73.18Z"/>
  <line class="st0" x1="245.96" y1="293.88" x2="319.16" y2="293.88"/>
  <path class="st2" d="M251,208.15"/>
  <path class="st2" d="M295.39,197.4"/>
  <polyline class="st2" points="245.96 208.15 246.06 278.09 319.06 278.09 319.06 208.15"/>
  <path class="st2" d="M245.8,208.5s34.37-47.1,73.41,0"/>
  <rect class="st3" x="246.28" y="208.93" width="24.47" height="4.09" rx="2.05" ry="2.05"/>
  <rect class="st3" x="246.28" y="243.14" width="24.47" height="4.09" rx="2.05" ry="2.05"/>
  <rect class="st3" x="246.28" y="259.99" width="24.47" height="4.09" rx="2.05" ry="2.05"/>
  <rect class="st3" x="246.28" y="226.03" width="24.47" height="4.09" rx="2.05" ry="2.05"/>
  <rect class="st3" x="294.39" y="208.93" width="24.67" height="4.09" rx="2.05" ry="2.05"/>
  <rect class="st3" x="294.39" y="243.52" width="24.67" height="4.09" rx="2.05" ry="2.05"/>
  <rect class="st3" x="294.39" y="259.99" width="24.67" height="4.09" rx="2.05" ry="2.05"/>
  <rect class="st3" x="294.39" y="226.03" width="24.67" height="4.09" rx="2.05" ry="2.05"/>
  <text/>
  <text class="st6" transform="translate(142.33 396.68) scale(.69 1)"><tspan x="0" y="0">R</tspan></text>
  <text class="st5" transform="translate(342.96 396.68) scale(.53 1)"><tspan x="0" y="0">M</tspan></text>
</svg>