<?xml version="1.0" encoding="UTF-8"?>
<svg id="Layer_1" xmlns="http://www.w3.org/2000/svg" version="1.1" viewBox="0 0 1366 768">
  <!-- Generator: Adobe Illustrator 30.2.1, SVG Export Plug-In . SVG Version: 2.1.1 Build 1)  -->
  <defs>
    <style>
      .st0 {
        stroke-width: 8px;
      }

      .st0, .st1, .st2, .st3, .st4, .st5, .st6, .st7, .st8, .st9, .st10 {
        fill: #fff;
      }

      .st0, .st1, .st2, .st4, .st11, .st5, .st6, .st7, .st8, .st9, .st10 {
        stroke-miterlimit: 10;
      }

      .st0, .st1, .st2, .st4, .st5, .st6, .st7, .st8, .st9, .st10 {
        stroke: #f2f2f2;
      }

      .st1 {
        opacity: .95;
      }

      .st2 {
        opacity: .88;
      }

      .st4 {
        opacity: .92;
      }

      .st11 {
        fill: #ff3f45;
        stroke: #ff3f45;
      }

      .st5 {
        stroke-width: .7px;
      }

      .st6 {
        opacity: .8;
      }

      .st12 {
        fill: #f2f2f2;
      }

      .st13 {
        fill: #666;
      }

      .st8 {
        opacity: .84;
      }

      .st9 {
        opacity: .43;
      }

      .st9, .st10 {
        stroke-width: .5px;
      }
    </style>
  </defs>
  <g>
    <path class="st3" d="M384.4,287.74c-33.95,0-56.83-.04-72.02-.14-8.43-.19-12.59-1.79-13.41-10.42-.32-2.42.26-5.64.93-9.35.72-3.99,1.53-8.51,1.52-13.41.08-10.89-.7-23.75-1.46-36.18-.87-14.27-1.76-29.03-1.42-41.39.41-15.31,5.39-15.36,17.43-15.5l2.14-.03c5.39,0,11.87,0,19.16,0,14.52,0,32.28,0,51.14-.01,21.39,0,44.22-.01,65.38-.01,25.07,0,47.82,0,63.13.04l1.32.03c4.3.08,8.75.17,11.7,2.19,4.56,3.01,4.4,16.35,4.27,27.07-.04,3.42-.08,6.64.04,9.28-.02,8.77-.01,17.94,0,27.12.01,12.36.03,25.15-.04,36.68-.04,4.57-.15,16.73-2.42,19.72l-.07.11c-2.47,3.84-7.25,3.94-11.87,4.04-.96.02-1.91.04-2.81.1h-9.82c-16.85,0-36.39.01-56.7.03-21.95.02-44.8.03-66.11.03Z"/>
    <path class="st12" d="M453.69,161.8c29.07,0,49.75.01,63.21.04.44.01.88.02,1.33.03,4.23.08,8.6.16,11.45,2.12,4.32,2.85,4.16,16.61,4.04,26.65-.04,3.42-.08,6.66.03,9.26-.02,8.79-.01,18.12,0,27.15.01,12.36.03,25.15-.04,36.67-.04,4.1-.15,16.57-2.32,19.42l-.03.04-.03.05-.02.04c-2.33,3.63-6.98,3.73-11.47,3.82-.97.02-1.89.04-2.8.09h-9.87c-16.86,0-36.41.01-56.71.03-21.95.02-44.8.03-66.11.03-33.92,0-56.78-.04-71.94-.14-8.31-.18-12.15-1.67-12.94-10.01-.31-2.33.26-5.5.93-9.18.72-4.01,1.54-8.55,1.53-13.49.08-10.91-.7-23.78-1.46-36.22-.87-14.26-1.76-29.01-1.42-41.34.39-14.82,4.9-14.88,16.93-15.02.69,0,1.41-.02,2.13-.03,5.42,0,11.93,0,19.25,0,14.51,0,32.24,0,51.08-.01,21.35,0,44.13-.01,65.26-.01M453.69,160.8c-39.78,0-85.38.02-116.34.02-7.32,0-13.84,0-19.25,0-13.51.21-19.62-.68-20.06,16.02-.63,23.25,3.05,54.33,2.88,77.58.02,9.5-3.12,17.73-2.45,22.81.88,9.31,5.82,10.7,13.91,10.88,17.2.11,43.18.14,71.97.14,41.02,0,87.73-.06,122.82-.06,3.41,0,6.72,0,9.9,0,5.23-.32,11.92.54,15.08-4.37l.04-.07c2.15-2.82,2.46-12.82,2.52-20.02.12-19.94,0-42.98.04-63.83-.48-11.07,1.73-32.61-4.52-36.74-3.4-2.33-8.57-2.19-13.3-2.31-15.33-.03-38.12-.04-63.23-.04h0Z"/>
  </g>
  <g>
    <path class="st3" d="M341.94,260.57c-19.75,0-35.82-16.07-35.82-35.82,0-7.03,2.03-13.83,5.88-19.67,7.02-10.65,15.28-15.4,26.78-15.4s21.51,7.43,30.39,13.98c1.16.86,2.3,1.7,3.43,2.51,3.32,2.39,5.24,5.12,5.71,8.11.52,3.28-.7,6.95-3.62,10.92-3.59,4.88-6.16,9.97-8.65,14.88-5.8,11.45-10.38,20.49-24.11,20.49Z"/>
    <path class="st12" d="M338.78,190.17c11.28,0,21.28,7.38,30.1,13.88,1.16.86,2.31,1.7,3.43,2.51,3.2,2.31,5.06,4.93,5.51,7.78.49,3.14-.69,6.69-3.52,10.55-3.61,4.92-6.19,10.02-8.69,14.95-5.72,11.29-10.24,20.21-23.66,20.21-19.47,0-35.32-15.84-35.32-35.32,0-6.93,2.01-13.64,5.8-19.4,6.91-10.5,15.04-15.18,26.36-15.18M338.78,189.17c-12.69,0-20.71,5.77-27.2,15.63-3.77,5.73-5.96,12.58-5.96,19.95,0,20.06,16.26,36.32,36.32,36.32s21.29-19.41,33.16-35.58c6.26-8.53,4.36-15-2.2-19.73-9.89-7.14-21.02-16.59-34.11-16.59h0Z"/>
  </g>
  <line class="st7" x1="309.78" y1="224.75" x2="373.08" y2="224.75"/>
  <line class="st1" x1="316.58" y1="234.82" x2="366.21" y2="234.82"/>
  <line class="st2" x1="323.13" y1="244.89" x2="360.14" y2="244.89"/>
  <line class="st6" x1="333.04" y1="254.97" x2="350.03" y2="254.97"/>
  <line class="st1" x1="316.58" y1="214.68" x2="366.21" y2="214.68"/>
  <line class="st2" x1="323.13" y1="204.61" x2="360.14" y2="204.61"/>
  <line class="st4" x1="320.1" y1="209.64" x2="362.16" y2="209.64"/>
  <line class="st6" x1="333.04" y1="194.53" x2="350.03" y2="194.53"/>
  <line class="st8" x1="330.21" y1="199.57" x2="354.07" y2="199.57"/>
  <line class="st8" x1="329.46" y1="249.93" x2="353.33" y2="249.93"/>
  <line class="st7" x1="314.43" y1="219.66" x2="369.85" y2="219.66"/>
  <line class="st7" x1="314.03" y1="229.37" x2="369.44" y2="229.37"/>
  <line class="st4" x1="320.1" y1="239.86" x2="362.16" y2="239.86"/>
  <g>
    <path class="st3" d="M341.55,240.73c-8.81,0-15.98-7.17-15.98-15.98s7.17-15.98,15.98-15.98,15.98,7.17,15.98,15.98-7.17,15.98-15.98,15.98Z"/>
    <path class="st12" d="M341.55,209.27c8.54,0,15.48,6.95,15.48,15.48s-6.95,15.48-15.48,15.48-15.48-6.95-15.48-15.48,6.95-15.48,15.48-15.48M341.55,208.27c-9.1,0-16.48,7.38-16.48,16.48s7.38,16.48,16.48,16.48,16.48-7.38,16.48-16.48-7.38-16.48-16.48-16.48h0Z"/>
  </g>
  <g>
    <path class="st13" d="M341.53,228.87c-2.4,0-4.35-1.95-4.35-4.35s1.95-4.35,4.35-4.35,4.35,1.95,4.35,4.35-1.95,4.35-4.35,4.35Z"/>
    <path class="st12" d="M341.53,220.66c2.13,0,3.85,1.73,3.85,3.85s-1.73,3.85-3.85,3.85-3.85-1.73-3.85-3.85,1.73-3.85,3.85-3.85M341.53,219.66c-2.68,0-4.85,2.17-4.85,4.85s2.17,4.85,4.85,4.85,4.85-2.17,4.85-4.85-2.17-4.85-4.85-4.85h0Z"/>
  </g>
  <path class="st10" d="M504.2,203.62c-.73,2.29-2.92,2.72-5.05,2.75-4.19.09-11.31.02-20,.04-23.65-.28-68.19,3.14-87.69,2.27-4.4-1.12-3.38-7.89-3.72-12.44-.02-2.28-.01-4.65.05-6.81.28-5.18-.1-10.24,6.07-10.06,23.81.45,85.46-3.71,108.46-1.99,3.7,1.94,2.56,10.57,2.83,15.48-.09,4.52,0,7.84-.92,10.66l-.04.1Z"/>
  <line class="st9" x1="395.01" y1="195.27" x2="499.09" y2="192.68"/>
  <line class="st11" x1="479.15" y1="200.88" x2="479.15" y2="183.01"/>
  <circle class="st5" cx="479.15" cy="246.05" r="24.54"/>
  <circle class="st5" cx="416.77" cy="246.05" r="24.54"/>
  <line class="st7" x1="398.89" y1="262.86" x2="438.22" y2="234.57"/>
  <line class="st7" x1="460.08" y1="261.54" x2="500.19" y2="233.46"/>
  <path class="st0" d="M325.04,144.27"/>
  <path class="st0" d="M311.44,144.44"/>
  <rect class="st0" x="311.44" y="151.83" width="14.8" height="5.46" rx=".05" ry=".05"/>
  <line class="st7" x1="321.46" y1="151.83" x2="404.45" y2="134.77"/>
  <g>
    <circle class="st13" cx="502.26" cy="98.98" r="4.35"/>
    <path class="st12" d="M502.26,95.13c2.13,0,3.85,1.73,3.85,3.85s-1.73,3.85-3.85,3.85-3.85-1.73-3.85-3.85,1.73-3.85,3.85-3.85M502.26,94.13c-2.68,0-4.85,2.17-4.85,4.85s2.17,4.85,4.85,4.85,4.85-2.17,4.85-4.85-2.17-4.85-4.85-4.85h0Z"/>
  </g>
  <line class="st7" x1="404.45" y1="134.77" x2="502.26" y2="98.98"/>
</svg>